<svg width="124" height="166" viewBox="0 0 124 166" fill="none" xmlns="http://www.w3.org/2000/svg">
<path d="M17.264 153C16.544 153 15.956 152.856 15.5 152.568C15.044 152.256 14.732 151.848 14.564 151.344C14.42 150.816 14.42 150.24 14.564 149.616C14.732 148.992 15.068 148.368 15.572 147.744L28.676 130.572V132.264H16.832C16.04 132.264 15.428 132.06 14.996 131.652C14.588 131.244 14.384 130.668 14.384 129.924C14.384 129.18 14.588 128.616 14.996 128.232C15.428 127.824 16.04 127.62 16.832 127.62H31.304C32.048 127.62 32.636 127.776 33.068 128.088C33.524 128.376 33.836 128.772 34.004 129.276C34.172 129.78 34.172 130.356 34.004 131.004C33.836 131.628 33.5 132.252 32.996 132.876L19.892 150.012V148.356H32.312C33.104 148.356 33.704 148.56 34.112 148.968C34.544 149.352 34.76 149.916 34.76 150.66C34.76 151.428 34.544 152.016 34.112 152.424C33.704 152.808 33.104 153 32.312 153H17.264ZM39.6645 153.324C38.7765 153.324 38.0925 153.084 37.6125 152.604C37.1565 152.124 36.9285 151.44 36.9285 150.552V130.068C36.9285 129.156 37.1565 128.472 37.6125 128.016C38.0925 127.536 38.7765 127.296 39.6645 127.296C40.5285 127.296 41.1885 127.536 41.6445 128.016C42.1245 128.472 42.3645 129.156 42.3645 130.068V138.636H41.8605C42.4125 137.46 43.2285 136.56 44.3085 135.936C45.4125 135.288 46.6605 134.964 48.0525 134.964C49.4685 134.964 50.6325 135.24 51.5445 135.792C52.4565 136.32 53.1405 137.136 53.5965 138.24C54.0525 139.32 54.2805 140.7 54.2805 142.38V150.552C54.2805 151.44 54.0405 152.124 53.5605 152.604C53.1045 153.084 52.4325 153.324 51.5445 153.324C50.6805 153.324 50.0085 153.084 49.5285 152.604C49.0725 152.124 48.8445 151.44 48.8445 150.552V142.632C48.8445 141.408 48.6165 140.532 48.1605 140.004C47.7285 139.452 47.0565 139.176 46.1445 139.176C44.9925 139.176 44.0685 139.536 43.3725 140.256C42.7005 140.976 42.3645 141.936 42.3645 143.136V150.552C42.3645 152.4 41.4645 153.324 39.6645 153.324ZM66.4746 153.396C64.5786 153.396 62.9226 153.024 61.5066 152.28C60.1146 151.536 59.0346 150.468 58.2666 149.076C57.4986 147.684 57.1146 146.04 57.1146 144.144C57.1146 142.728 57.3306 141.456 57.7626 140.328C58.1946 139.2 58.8186 138.24 59.6346 137.448C60.4746 136.632 61.4706 136.02 62.6226 135.612C63.7746 135.18 65.0586 134.964 66.4746 134.964C68.3706 134.964 70.0146 135.336 71.4066 136.08C72.8226 136.824 73.9146 137.88 74.6826 139.248C75.4746 140.616 75.8706 142.248 75.8706 144.144C75.8706 145.584 75.6426 146.868 75.1866 147.996C74.7546 149.124 74.1306 150.096 73.3146 150.912C72.4986 151.728 71.5026 152.352 70.3266 152.784C69.1746 153.192 67.8906 153.396 66.4746 153.396ZM66.4746 149.328C67.2666 149.328 67.9506 149.136 68.5266 148.752C69.1026 148.368 69.5586 147.804 69.8946 147.06C70.2306 146.292 70.3986 145.32 70.3986 144.144C70.3986 142.392 70.0386 141.108 69.3186 140.292C68.5986 139.452 67.6506 139.032 66.4746 139.032C65.7066 139.032 65.0226 139.212 64.4226 139.572C63.8466 139.932 63.3906 140.496 63.0546 141.264C62.7426 142.008 62.5866 142.968 62.5866 144.144C62.5866 145.896 62.9466 147.204 63.6666 148.068C64.3866 148.908 65.3226 149.328 66.4746 149.328ZM87.3138 153.396C85.4178 153.396 83.7618 153.024 82.3458 152.28C80.9538 151.536 79.8738 150.468 79.1058 149.076C78.3378 147.684 77.9538 146.04 77.9538 144.144C77.9538 142.728 78.1698 141.456 78.6018 140.328C79.0338 139.2 79.6578 138.24 80.4738 137.448C81.3138 136.632 82.3098 136.02 83.4618 135.612C84.6138 135.18 85.8978 134.964 87.3138 134.964C89.2098 134.964 90.8538 135.336 92.2458 136.08C93.6618 136.824 94.7538 137.88 95.5218 139.248C96.3138 140.616 96.7098 142.248 96.7098 144.144C96.7098 145.584 96.4818 146.868 96.0258 147.996C95.5938 149.124 94.9698 150.096 94.1538 150.912C93.3378 151.728 92.3418 152.352 91.1658 152.784C90.0138 153.192 88.7298 153.396 87.3138 153.396ZM87.3138 149.328C88.1058 149.328 88.7898 149.136 89.3658 148.752C89.9418 148.368 90.3978 147.804 90.7338 147.06C91.0698 146.292 91.2378 145.32 91.2378 144.144C91.2378 142.392 90.8778 141.108 90.1578 140.292C89.4378 139.452 88.4898 139.032 87.3138 139.032C86.5458 139.032 85.8618 139.212 85.2618 139.572C84.6858 139.932 84.2298 140.496 83.8938 141.264C83.5818 142.008 83.4258 142.968 83.4258 144.144C83.4258 145.896 83.7858 147.204 84.5058 148.068C85.2258 148.908 86.1618 149.328 87.3138 149.328ZM108.157 153.396C106.501 153.396 105.109 153.12 103.981 152.568C102.877 152.016 102.049 151.212 101.497 150.156C100.969 149.1 100.705 147.768 100.705 146.16V139.392H99.1933C98.5213 139.392 97.9933 139.212 97.6093 138.852C97.2493 138.492 97.0693 138 97.0693 137.376C97.0693 136.704 97.2493 136.2 97.6093 135.864C97.9933 135.504 98.5213 135.324 99.1933 135.324H100.705V132.588C100.705 131.676 100.945 130.992 101.425 130.536C101.905 130.056 102.577 129.816 103.441 129.816C104.329 129.816 105.001 130.056 105.457 130.536C105.913 130.992 106.141 131.676 106.141 132.588V135.324H109.561C110.233 135.324 110.749 135.504 111.109 135.864C111.469 136.2 111.649 136.704 111.649 137.376C111.649 138 111.469 138.492 111.109 138.852C110.749 139.212 110.233 139.392 109.561 139.392H106.141V145.944C106.141 146.952 106.369 147.708 106.825 148.212C107.305 148.716 108.061 148.968 109.093 148.968C109.453 148.968 109.789 148.932 110.101 148.86C110.413 148.788 110.701 148.74 110.965 148.716C111.301 148.692 111.577 148.8 111.793 149.04C112.009 149.256 112.117 149.748 112.117 150.516C112.117 151.092 112.021 151.596 111.829 152.028C111.637 152.46 111.301 152.772 110.821 152.964C110.509 153.084 110.077 153.18 109.525 153.252C108.997 153.348 108.541 153.396 108.157 153.396Z" fill="white"/>
<mask id="mask0_67_4106" style="mask-type:alpha" maskUnits="userSpaceOnUse" x="12" y="0" width="100" height="100">
<rect x="12" width="100" height="100" rx="24" fill="#6A5AE0"/>
</mask>
<g mask="url(#mask0_67_4106)">
<path d="M115.216 72.2475C115.216 86.2713 109.6 99.7207 99.6046 109.637C89.609 119.554 76.0522 125.125 61.9162 125.125C61.1871 125.125 60.4719 125.111 59.7429 125.084C55.8493 124.926 51.9846 124.35 48.2163 123.365C48.9453 122.996 49.6606 122.628 50.3758 122.232C50.3896 122.232 50.4033 122.218 50.4308 122.205L50.4446 122.191C51.2011 121.782 51.9439 121.372 52.6729 120.949C52.8517 120.84 53.0305 120.745 53.2093 120.649C53.8971 120.24 54.5848 119.83 55.2588 119.394C55.4581 119.287 55.651 119.168 55.8365 119.039C56.3592 118.725 56.8819 118.384 57.3908 118.043C57.7484 117.811 58.1198 117.565 58.4637 117.333C58.9864 116.978 59.4953 116.624 60.0042 116.255C60.3481 116.023 60.6645 115.791 60.9946 115.532C61.4347 115.232 61.8611 114.904 62.2875 114.577C62.6727 114.304 63.044 114.017 63.4154 113.717C63.9381 113.321 64.447 112.912 64.956 112.475C65.1761 112.312 65.3961 112.134 65.6162 111.943C66.1664 111.493 66.7028 111.029 67.2393 110.551C67.5281 110.306 67.817 110.06 68.1058 109.787C68.4222 109.514 68.7248 109.241 69.0274 108.955C69.6051 108.436 70.1691 107.89 70.733 107.345C70.8085 107.283 70.8777 107.215 70.9393 107.14C71.4895 106.621 72.026 106.075 72.5487 105.53C72.92 105.175 73.2639 104.806 73.594 104.438C73.9929 104.042 74.3643 103.633 74.7357 103.223C74.9558 102.992 75.1621 102.76 75.3546 102.528C75.8498 101.982 76.3312 101.422 76.8127 100.863C77.0603 100.576 77.3078 100.276 77.5417 99.9758C77.8993 99.5664 78.2432 99.157 78.5595 98.734C78.8896 98.3383 79.206 97.9289 79.5086 97.5195C79.7975 97.1647 80.0726 96.7963 80.3339 96.4415C80.6915 95.9776 81.0354 95.5136 81.3655 95.036C81.6956 94.5584 82.0533 94.0808 82.3834 93.5895C82.5472 93.3753 82.6988 93.1521 82.8373 92.9209C83.305 92.2386 83.7589 91.5427 84.199 90.8467C84.763 89.9871 85.2994 89.1137 85.8083 88.2267C86.0422 87.8447 86.2623 87.4626 86.4823 87.0805C88.2661 83.9596 89.8556 80.733 91.2415 77.4193C91.4478 76.9553 91.6404 76.4914 91.8192 76.0138C92.0393 75.5089 92.2319 74.9903 92.4244 74.4718C92.5895 74.0488 92.7545 73.6121 92.9059 73.1754C93.0847 72.6978 93.2497 72.2066 93.4148 71.729C94.02 69.9823 94.5702 68.222 95.0516 66.4344C95.1754 65.9841 95.2992 65.5474 95.4092 65.0971C95.4918 64.8106 95.5605 64.5376 95.6293 64.2511L95.9594 62.8592C96.3996 60.9624 96.771 59.052 97.0873 57.1143L97.2937 55.8043C97.3212 55.5996 97.3487 55.4086 97.3762 55.2039C97.4587 54.6854 97.5275 54.1668 97.5825 53.6483C97.6788 52.8705 97.7751 52.0927 97.8438 51.3149C97.8714 51.1102 97.8851 50.9055 97.8989 50.7008C97.9539 50.1686 97.9952 49.6228 98.0364 49.0906C98.0777 48.5584 98.1052 47.9989 98.1327 47.4531C98.1602 47.071 98.174 46.6889 98.1877 46.2932C98.2427 45.0378 98.2702 43.7824 98.2702 42.527C98.2702 41.8856 98.2703 41.2579 98.2427 40.6302C98.2427 40.3027 98.2427 39.9888 98.229 39.6613C98.1877 38.5287 98.1327 37.4098 98.0502 36.2908L98.0502 36.2499C98.0364 35.977 98.0227 35.7041 97.9952 35.4311C97.9401 34.6806 97.8714 33.9437 97.8026 33.1932C97.803 33.1698 97.7983 33.1464 97.7888 33.125C99.642 34.7995 101.375 36.6006 102.974 38.5151L103.016 38.556C103.023 38.5634 103.028 38.5729 103.029 38.5833C110.926 48.0509 115.237 59.9593 115.216 72.2475Z" fill="#FF8FA2"/>
<path d="M98.2163 42.2831C98.2237 58.6065 93.7874 74.6283 85.3768 88.6527C76.9663 102.677 64.8943 114.183 50.4387 121.951C50.4209 121.972 50.3967 121.987 50.3699 121.992L50.3563 122.006C49.6417 122.388 48.9272 122.757 48.2127 123.125C43.7283 121.951 39.4214 120.189 35.406 117.885C32.5011 116.223 29.7592 114.295 27.2163 112.126C27.6972 111.621 28.1644 111.116 28.6316 110.598L28.6452 110.584C28.6452 110.57 28.6591 110.557 28.6729 110.543L28.6865 110.543C43.7229 93.9463 52.0266 72.4011 51.9915 50.0753C51.9937 40.458 50.4632 30.9009 47.4568 21.7588L47.4432 21.7588C47.4432 21.7315 47.4294 21.7042 47.4294 21.6769L47.4155 21.6769C47.4077 21.655 47.403 21.632 47.4019 21.6087C47.1271 20.7762 46.8386 19.9438 46.5363 19.1251L61.8988 19.125C75.1545 19.1068 87.9377 24.0135 97.7354 32.8807C97.8453 33.9178 97.9277 34.9549 97.9964 36.0057C98.1476 38.08 98.2163 40.1679 98.2163 42.2831Z" fill="#9087E5"/>
<path d="M52 49.95C52 50.8643 51.9864 51.7786 51.9591 52.6792C51.9455 53.266 51.9182 53.8392 51.8909 54.426C51.7819 56.7731 51.5774 59.1067 51.2774 61.4266C51.2093 62.027 51.1275 62.6138 51.032 63.2006C50.9366 63.9238 50.8139 64.6335 50.6912 65.3567C50.5821 66.039 50.4594 66.7077 50.3231 67.39C50.2958 67.5538 50.2549 67.7175 50.2276 67.8813C50.1186 68.4408 49.9959 69.0139 49.8732 69.5734C49.2328 72.4818 48.4456 75.3557 47.5146 78.1843C47.3374 78.7438 47.1465 79.2897 46.9556 79.8219C46.939 79.8875 46.9162 79.9515 46.8874 80.0129C46.6966 80.5724 46.5057 81.1046 46.3012 81.6505C46.2467 81.8142 46.1785 81.9916 46.1103 82.169C45.8922 82.7558 45.6604 83.329 45.4287 83.9021C45.1696 84.5572 44.897 85.2122 44.6107 85.8536C44.3244 86.5222 44.0244 87.1909 43.7245 87.8596C43.4382 88.4737 43.1382 89.0877 42.8519 89.6882C42.5384 90.3296 42.2248 90.9573 41.8976 91.5714C41.5704 92.1855 41.2432 92.8132 40.9023 93.4273C40.5615 94.0414 40.2207 94.6555 39.8798 95.2559C39.539 95.8563 39.1709 96.4704 38.8028 97.0709C38.4347 97.6713 38.0666 98.2581 37.6848 98.8449C36.935 100.018 36.1579 101.178 35.3535 102.311C34.5491 103.444 33.7039 104.563 32.8586 105.668C31.577 107.292 30.2501 108.875 28.8776 110.417L28.864 110.417C28.8503 110.431 28.8504 110.431 28.8504 110.444C28.8504 110.448 28.849 110.451 28.8464 110.454C28.8438 110.456 28.8404 110.458 28.8367 110.458C28.3732 110.977 27.896 111.495 27.4188 112C25.2707 110.152 23.2738 108.135 21.4474 105.968C21.4336 105.942 21.4151 105.919 21.3929 105.9C13.3752 96.3821 8.98462 84.3294 9.00004 71.8797L9.00004 19L46.5875 19C46.8874 19.8188 47.1737 20.6376 47.4328 21.47L47.4464 21.4836C47.4476 21.5069 47.4523 21.5299 47.46 21.5519L47.4737 21.5519L47.4737 21.5928C47.4729 21.6002 47.4735 21.6077 47.4759 21.6148C47.4783 21.6219 47.4823 21.6283 47.4873 21.6337L47.5009 21.6337C47.5131 21.6858 47.5314 21.7362 47.5555 21.7838L47.7191 22.3161C48.1826 23.7626 48.6053 25.2227 48.987 26.7102C49.2597 27.7064 49.5051 28.7298 49.7368 29.7533C50.1595 31.6092 50.5276 33.5061 50.8412 35.4302C50.9093 35.8942 50.9911 36.3445 51.0457 36.8085C51.2093 37.9412 51.3592 39.0738 51.4819 40.2201C51.5365 40.6431 51.5774 41.0798 51.6046 41.5029C51.6864 42.2943 51.741 43.0995 51.7955 43.891C51.9318 45.897 52 47.9167 52 49.95Z" fill="#C4D0FB"/>
</g>
<rect x="12" width="100" height="90" rx="24" fill="white"/>
<mask id="mask1_67_4106" style="mask-type:alpha" maskUnits="userSpaceOnUse" x="35" y="14" width="54" height="62">
<path fill-rule="evenodd" clip-rule="evenodd" d="M60.3881 61.5758C62.2584 61.4892 64.0977 61.1911 65.8726 60.6961L68.3771 63.177C70.7337 65.5114 74.563 65.5201 76.9302 63.1964C79.2973 60.8727 79.3059 57.0965 76.9493 54.7621L74.1056 51.9451C73.5754 51.4199 72.9707 51.0124 72.3248 50.7227C70.4574 49.3959 67.821 49.57 65.6936 50.6025C63.9109 51.4677 61.9513 51.9724 59.9312 52.0659C56.314 52.2334 52.7632 51.0705 49.973 48.8045C47.1828 46.5386 45.3538 43.3326 44.8435 39.8133C44.3333 36.2939 45.1785 32.7143 47.214 29.7742C49.2494 26.8341 52.3287 24.7449 55.8499 23.915C59.3711 23.0852 63.081 23.5743 66.2543 25.2869C69.4276 26.9994 71.8362 29.8122 73.0091 33.1753C73.6378 34.9778 73.8873 36.8688 73.7621 38.738C73.582 41.4277 74.6263 44.3347 77.1074 45.3887C79.5416 46.4227 82.4108 45.3097 82.9675 42.7242C83.8666 38.5495 83.6118 34.1835 82.1846 30.0915C80.2296 24.4862 76.2153 19.7983 70.9265 16.944C65.6376 14.0898 59.4545 13.2745 53.5859 14.6576C47.7172 16.0407 42.585 19.5227 39.1927 24.4229C35.8003 29.3231 34.3916 35.2891 35.242 41.1547C36.0923 47.0203 39.1407 52.3636 43.791 56.1402C48.4414 59.9167 54.3594 61.8549 60.3881 61.5758ZM78.6856 65.8097C76.3187 68.1332 76.3098 71.9094 78.6662 74.2437C81.0226 76.5779 84.852 76.5862 87.2189 74.2627C89.5859 71.9392 89.5948 68.163 87.2384 65.8287C84.882 63.4945 81.0526 63.4862 78.6856 65.8097Z" fill="#6A5AE0"/>
</mask>
<g mask="url(#mask1_67_4106)">
<path fill-rule="evenodd" clip-rule="evenodd" d="M67.8164 95.3204L116.83 46.9278L106.232 36.8094L50.1538 92.6809L67.8164 95.3204Z" fill="#6A5AE0"/>
<path fill-rule="evenodd" clip-rule="evenodd" d="M58.1889 82.4282L105.717 36.4962L95.4408 26.8923L41.0615 79.9228L58.1889 82.4282Z" fill="#6A5AE0"/>
<path fill-rule="evenodd" clip-rule="evenodd" d="M43.8934 80.4719L99.7437 25.247L89.9545 14.9235L34.1042 70.1484L43.8934 80.4719Z" fill="#6A5AE0"/>
<path fill-rule="evenodd" clip-rule="evenodd" d="M33.8085 71.5193L89.5531 16.1382L75.0683 10.0331L25.9077 58.8732L33.8085 71.5193Z" fill="#6A5AE0"/>
<path fill-rule="evenodd" clip-rule="evenodd" d="M25.9077 59.6188L76.4199 10.0331L49.3598 12.6895L25.9077 37.9251V59.6188Z" fill="#6A5AE0"/>
</g>
</svg>
