<svg width="180" height="48" viewBox="0 0 180 48" fill="none" xmlns="http://www.w3.org/2000/svg">
<rect width="180" height="48" rx="10" fill="white"/>
<rect x="5" y="4" width="40" height="40" rx="8" fill="white"/>
<rect x="11" y="10" width="12" height="12" rx="2" fill="#6A5AE0"/>
<path d="M18.1629 17.864H15.8349L15.4349 19H14.4829L16.4749 13.432H17.5309L19.5229 19H18.5629L18.1629 17.864ZM17.9069 17.12L17.0029 14.536L16.0909 17.12H17.9069Z" fill="white"/>
<rect x="11" y="26" width="12" height="12" rx="2" fill="#C4D0FB"/>
<rect x="27" y="10" width="12" height="12" rx="2" fill="#C4D0FB"/>
<rect x="27" y="26" width="12" height="12" rx="2" fill="#C4D0FB"/>
<path d="M34.0565 16.144C34.3551 16.1973 34.6085 16.3547 34.8165 16.616C35.0245 16.8773 35.1285 17.1733 35.1285 17.504C35.1285 17.7867 35.0538 18.0427 34.9045 18.272C34.7605 18.496 34.5498 18.6747 34.2725 18.808C33.9951 18.936 33.6725 19 33.3045 19H31.0805V13.44H33.2005C33.5791 13.44 33.9045 13.504 34.1765 13.632C34.4485 13.76 34.6538 13.9333 34.7925 14.152C34.9311 14.3653 35.0005 14.6053 35.0005 14.872C35.0005 15.192 34.9151 15.4587 34.7445 15.672C34.5738 15.8853 34.3445 16.0427 34.0565 16.144ZM31.9925 15.776H33.1205C33.4191 15.776 33.6511 15.7093 33.8165 15.576C33.9871 15.4373 34.0725 15.24 34.0725 14.984C34.0725 14.7333 33.9871 14.5387 33.8165 14.4C33.6511 14.256 33.4191 14.184 33.1205 14.184H31.9925V15.776ZM33.2245 18.256C33.5338 18.256 33.7765 18.1813 33.9525 18.032C34.1285 17.8827 34.2165 17.6747 34.2165 17.408C34.2165 17.136 34.1231 16.92 33.9365 16.76C33.7498 16.6 33.5018 16.52 33.1925 16.52H31.9925V18.256H33.2245Z" fill="white"/>
<path d="M32.5801 29.44C33.1721 29.44 33.6894 29.5547 34.1321 29.784C34.5801 30.008 34.9241 30.3333 35.1641 30.76C35.4094 31.1813 35.5321 31.6747 35.5321 32.24C35.5321 32.8053 35.4094 33.296 35.1641 33.712C34.9241 34.128 34.5801 34.448 34.1321 34.672C33.6894 34.8907 33.1721 35 32.5801 35H30.7641V29.44H32.5801ZM32.5801 34.256C33.2307 34.256 33.7294 34.08 34.0761 33.728C34.4227 33.376 34.5961 32.88 34.5961 32.24C34.5961 31.5947 34.4227 31.0907 34.0761 30.728C33.7294 30.3653 33.2307 30.184 32.5801 30.184H31.6761V34.256H32.5801Z" fill="white"/>
<path d="M14.7023 32.208C14.7023 31.664 14.8276 31.176 15.0783 30.744C15.3343 30.312 15.6783 29.976 16.1103 29.736C16.5476 29.4907 17.0249 29.368 17.5423 29.368C18.1343 29.368 18.6596 29.5147 19.1183 29.808C19.5823 30.096 19.9183 30.5067 20.1263 31.04H19.0303C18.8863 30.7467 18.6863 30.528 18.4303 30.384C18.1743 30.24 17.8783 30.168 17.5423 30.168C17.1743 30.168 16.8463 30.2507 16.5583 30.416C16.2703 30.5813 16.0436 30.8187 15.8783 31.128C15.7183 31.4373 15.6383 31.7973 15.6383 32.208C15.6383 32.6187 15.7183 32.9787 15.8783 33.288C16.0436 33.5973 16.2703 33.8373 16.5583 34.008C16.8463 34.1733 17.1743 34.256 17.5423 34.256C17.8783 34.256 18.1743 34.184 18.4303 34.04C18.6863 33.896 18.8863 33.6773 19.0303 33.384H20.1263C19.9183 33.9173 19.5823 34.328 19.1183 34.616C18.6596 34.904 18.1343 35.048 17.5423 35.048C17.0196 35.048 16.5423 34.928 16.1103 34.688C15.6783 34.4427 15.3343 34.104 15.0783 33.672C14.8276 33.24 14.7023 32.752 14.7023 32.208Z" fill="white"/>
<path d="M54.8248 29C54.7221 29 54.6381 28.9673 54.5728 28.902C54.5075 28.8367 54.4748 28.7573 54.4748 28.664V19.55C54.4748 19.4473 54.5075 19.3633 54.5728 19.298C54.6381 19.2327 54.7221 19.2 54.8248 19.2H55.9308C56.0615 19.2 56.1595 19.2373 56.2248 19.312C56.2901 19.3773 56.3321 19.4287 56.3508 19.466L59.0528 24.506L61.7828 19.466C61.8015 19.4287 61.8435 19.3773 61.9088 19.312C61.9741 19.2373 62.0721 19.2 62.2028 19.2H63.2948C63.3975 19.2 63.4815 19.2327 63.5468 19.298C63.6121 19.3633 63.6448 19.4473 63.6448 19.55V28.664C63.6448 28.7573 63.6121 28.8367 63.5468 28.902C63.4815 28.9673 63.3975 29 63.2948 29H62.1188C62.0161 29 61.9321 28.9673 61.8668 28.902C61.8108 28.8367 61.7828 28.7573 61.7828 28.664V22.602L59.8228 26.34C59.7761 26.424 59.7155 26.4987 59.6408 26.564C59.5661 26.62 59.4681 26.648 59.3468 26.648H58.7728C58.6421 26.648 58.5395 26.62 58.4648 26.564C58.3995 26.4987 58.3435 26.424 58.2968 26.34L56.3368 22.602V28.664C56.3368 28.7573 56.3041 28.8367 56.2388 28.902C56.1735 28.9673 56.0941 29 56.0008 29H54.8248ZM68.3565 29.14C67.7871 29.14 67.2925 29.014 66.8725 28.762C66.4618 28.5007 66.1445 28.1367 65.9205 27.67C65.6965 27.194 65.5845 26.634 65.5845 25.99V22.056C65.5845 21.9627 65.6171 21.8833 65.6825 21.818C65.7478 21.7527 65.8271 21.72 65.9205 21.72H67.1525C67.2551 21.72 67.3345 21.7527 67.3905 21.818C67.4558 21.8833 67.4885 21.9627 67.4885 22.056V25.906C67.4885 27.0633 67.9971 27.642 69.0145 27.642C69.4998 27.642 69.8825 27.488 70.1625 27.18C70.4518 26.872 70.5965 26.4473 70.5965 25.906V22.056C70.5965 21.9627 70.6291 21.8833 70.6945 21.818C70.7598 21.7527 70.8391 21.72 70.9325 21.72H72.1645C72.2578 21.72 72.3371 21.7527 72.4025 21.818C72.4678 21.8833 72.5005 21.9627 72.5005 22.056V28.664C72.5005 28.7573 72.4678 28.8367 72.4025 28.902C72.3371 28.9673 72.2578 29 72.1645 29H71.0305C70.9278 29 70.8438 28.9673 70.7785 28.902C70.7225 28.8367 70.6945 28.7573 70.6945 28.664V28.09C70.4425 28.4167 70.1298 28.6733 69.7565 28.86C69.3831 29.0467 68.9165 29.14 68.3565 29.14ZM74.6998 29C74.6064 29 74.5271 28.9673 74.4618 28.902C74.3964 28.8367 74.3638 28.7573 74.3638 28.664V19.396C74.3638 19.3027 74.3964 19.2233 74.4618 19.158C74.5271 19.0927 74.6064 19.06 74.6998 19.06H75.8618C75.9551 19.06 76.0344 19.0927 76.0998 19.158C76.1651 19.2233 76.1978 19.3027 76.1978 19.396V28.664C76.1978 28.7573 76.1651 28.8367 76.0998 28.902C76.0344 28.9673 75.9551 29 75.8618 29H74.6998ZM81.3449 29C80.7849 29 80.3135 28.902 79.9309 28.706C79.5482 28.51 79.2635 28.2207 79.0769 27.838C78.8902 27.446 78.7969 26.9607 78.7969 26.382V23.204H77.6909C77.5975 23.204 77.5182 23.1713 77.4529 23.106C77.3875 23.0407 77.3549 22.9613 77.3549 22.868V22.056C77.3549 21.9627 77.3875 21.8833 77.4529 21.818C77.5182 21.7527 77.5975 21.72 77.6909 21.72H78.7969V19.396C78.7969 19.3027 78.8249 19.2233 78.8809 19.158C78.9462 19.0927 79.0302 19.06 79.1329 19.06H80.2669C80.3602 19.06 80.4395 19.0927 80.5049 19.158C80.5702 19.2233 80.6029 19.3027 80.6029 19.396V21.72H82.3529C82.4462 21.72 82.5255 21.7527 82.5909 21.818C82.6562 21.8833 82.6889 21.9627 82.6889 22.056V22.868C82.6889 22.9613 82.6562 23.0407 82.5909 23.106C82.5255 23.1713 82.4462 23.204 82.3529 23.204H80.6029V26.242C80.6029 26.6247 80.6682 26.9233 80.7989 27.138C80.9389 27.3527 81.1769 27.46 81.5129 27.46H82.4789C82.5722 27.46 82.6515 27.4927 82.7169 27.558C82.7822 27.6233 82.8149 27.7027 82.8149 27.796V28.664C82.8149 28.7573 82.7822 28.8367 82.7169 28.902C82.6515 28.9673 82.5722 29 82.4789 29H81.3449ZM84.3928 29C84.2995 29 84.2201 28.9673 84.1548 28.902C84.0895 28.8367 84.0568 28.7573 84.0568 28.664V22.056C84.0568 21.9627 84.0895 21.8833 84.1548 21.818C84.2201 21.7527 84.2995 21.72 84.3928 21.72H85.5548C85.6575 21.72 85.7368 21.7527 85.7928 21.818C85.8581 21.8833 85.8908 21.9627 85.8908 22.056V28.664C85.8908 28.7573 85.8581 28.8367 85.7928 28.902C85.7368 28.9673 85.6575 29 85.5548 29H84.3928ZM84.3368 20.516C84.2341 20.516 84.1501 20.488 84.0848 20.432C84.0288 20.3667 84.0008 20.2827 84.0008 20.18V19.172C84.0008 19.0787 84.0288 18.9993 84.0848 18.934C84.1501 18.8687 84.2341 18.836 84.3368 18.836H85.6108C85.7135 18.836 85.7975 18.8687 85.8628 18.934C85.9281 18.9993 85.9608 19.0787 85.9608 19.172V20.18C85.9608 20.2827 85.9281 20.3667 85.8628 20.432C85.7975 20.488 85.7135 20.516 85.6108 20.516H84.3368ZM88.3853 31.66C88.292 31.66 88.2127 31.6273 88.1473 31.562C88.082 31.4967 88.0493 31.4173 88.0493 31.324V22.056C88.0493 21.9627 88.082 21.8833 88.1473 21.818C88.2127 21.7527 88.292 21.72 88.3853 21.72H89.4913C89.594 21.72 89.6733 21.7527 89.7293 21.818C89.7947 21.8833 89.8273 21.9627 89.8273 22.056V22.616C90.0513 22.3173 90.3453 22.07 90.7093 21.874C91.0733 21.678 91.526 21.58 92.0673 21.58C92.562 21.58 92.9913 21.6593 93.3553 21.818C93.7193 21.9767 94.0227 22.2053 94.2653 22.504C94.508 22.7933 94.6947 23.1387 94.8253 23.54C94.956 23.9413 95.0307 24.3847 95.0493 24.87C95.0587 25.0287 95.0633 25.192 95.0633 25.36C95.0633 25.528 95.0587 25.696 95.0493 25.864C95.04 26.3307 94.97 26.7647 94.8393 27.166C94.7087 27.558 94.5173 27.9033 94.2653 28.202C94.0227 28.4913 93.7193 28.72 93.3553 28.888C92.9913 29.056 92.562 29.14 92.0673 29.14C91.5633 29.14 91.134 29.0513 90.7793 28.874C90.4247 28.6873 90.1353 28.4447 89.9113 28.146V31.324C89.9113 31.4173 89.8787 31.4967 89.8133 31.562C89.7573 31.6273 89.678 31.66 89.5753 31.66H88.3853ZM91.5493 27.642C91.9507 27.642 92.2633 27.558 92.4873 27.39C92.7113 27.2127 92.87 26.984 92.9633 26.704C93.066 26.424 93.1267 26.116 93.1453 25.78C93.164 25.5 93.164 25.22 93.1453 24.94C93.1267 24.604 93.066 24.296 92.9633 24.016C92.87 23.736 92.7113 23.512 92.4873 23.344C92.2633 23.1667 91.9507 23.078 91.5493 23.078C91.1667 23.078 90.854 23.1667 90.6113 23.344C90.378 23.5213 90.2053 23.75 90.0933 24.03C89.9907 24.3007 89.93 24.5807 89.9113 24.87C89.902 25.038 89.8973 25.2153 89.8973 25.402C89.8973 25.5887 89.902 25.7707 89.9113 25.948C89.9207 26.228 89.986 26.4987 90.1073 26.76C90.2287 27.012 90.406 27.222 90.6393 27.39C90.8727 27.558 91.176 27.642 91.5493 27.642ZM96.9849 29C96.8916 29 96.8123 28.9673 96.7469 28.902C96.6816 28.8367 96.6489 28.7573 96.6489 28.664V19.396C96.6489 19.3027 96.6816 19.2233 96.7469 19.158C96.8123 19.0927 96.8916 19.06 96.9849 19.06H98.1469C98.2403 19.06 98.3196 19.0927 98.3849 19.158C98.4503 19.2233 98.4829 19.3027 98.4829 19.396V28.664C98.4829 28.7573 98.4503 28.8367 98.3849 28.902C98.3196 28.9673 98.2403 29 98.1469 29H96.9849ZM103.476 29.14C102.44 29.14 101.619 28.8413 101.012 28.244C100.405 27.6467 100.079 26.7973 100.032 25.696C100.023 25.6027 100.018 25.486 100.018 25.346C100.018 25.1967 100.023 25.08 100.032 24.996C100.069 24.296 100.228 23.6893 100.508 23.176C100.797 22.6627 101.194 22.2707 101.698 22C102.202 21.72 102.795 21.58 103.476 21.58C104.232 21.58 104.867 21.7387 105.38 22.056C105.893 22.364 106.281 22.798 106.542 23.358C106.803 23.9087 106.934 24.548 106.934 25.276V25.57C106.934 25.6633 106.901 25.7427 106.836 25.808C106.771 25.8733 106.687 25.906 106.584 25.906H101.936C101.936 25.906 101.936 25.92 101.936 25.948C101.936 25.976 101.936 25.9993 101.936 26.018C101.945 26.3447 102.006 26.648 102.118 26.928C102.239 27.1987 102.412 27.418 102.636 27.586C102.869 27.754 103.145 27.838 103.462 27.838C103.723 27.838 103.943 27.8007 104.12 27.726C104.297 27.642 104.442 27.5487 104.554 27.446C104.666 27.3433 104.745 27.2593 104.792 27.194C104.876 27.082 104.941 27.0167 104.988 26.998C105.044 26.97 105.123 26.956 105.226 26.956H106.43C106.523 26.956 106.598 26.984 106.654 27.04C106.719 27.096 106.747 27.166 106.738 27.25C106.729 27.3993 106.649 27.5813 106.5 27.796C106.36 28.0107 106.155 28.2207 105.884 28.426C105.613 28.6313 105.273 28.804 104.862 28.944C104.461 29.0747 103.999 29.14 103.476 29.14ZM101.936 24.73H105.03V24.688C105.03 24.324 104.969 24.0067 104.848 23.736C104.727 23.4653 104.549 23.2507 104.316 23.092C104.083 22.9333 103.803 22.854 103.476 22.854C103.149 22.854 102.869 22.9333 102.636 23.092C102.403 23.2507 102.225 23.4653 102.104 23.736C101.992 24.0067 101.936 24.324 101.936 24.688V24.73ZM115.567 29.14C114.699 29.14 113.962 28.9907 113.355 28.692C112.758 28.384 112.301 27.95 111.983 27.39C111.666 26.8207 111.489 26.1393 111.451 25.346C111.442 24.9633 111.437 24.5527 111.437 24.114C111.437 23.6753 111.442 23.2553 111.451 22.854C111.489 22.07 111.666 21.3933 111.983 20.824C112.31 20.2547 112.772 19.8207 113.369 19.522C113.976 19.214 114.709 19.06 115.567 19.06C116.202 19.06 116.771 19.144 117.275 19.312C117.779 19.48 118.209 19.7133 118.563 20.012C118.918 20.3013 119.193 20.642 119.389 21.034C119.585 21.426 119.688 21.8507 119.697 22.308C119.707 22.392 119.679 22.462 119.613 22.518C119.557 22.574 119.487 22.602 119.403 22.602H118.073C117.971 22.602 117.887 22.5787 117.821 22.532C117.756 22.476 117.709 22.3873 117.681 22.266C117.532 21.65 117.275 21.23 116.911 21.006C116.547 20.782 116.095 20.67 115.553 20.67C114.928 20.67 114.429 20.8473 114.055 21.202C113.682 21.5473 113.481 22.1213 113.453 22.924C113.425 23.6893 113.425 24.4733 113.453 25.276C113.481 26.0787 113.682 26.6573 114.055 27.012C114.429 27.3573 114.928 27.53 115.553 27.53C116.095 27.53 116.547 27.418 116.911 27.194C117.275 26.9607 117.532 26.5407 117.681 25.934C117.709 25.8033 117.756 25.7147 117.821 25.668C117.887 25.6213 117.971 25.598 118.073 25.598H119.403C119.487 25.598 119.557 25.626 119.613 25.682C119.679 25.738 119.707 25.808 119.697 25.892C119.688 26.3493 119.585 26.774 119.389 27.166C119.193 27.558 118.918 27.9033 118.563 28.202C118.209 28.4913 117.779 28.72 117.275 28.888C116.771 29.056 116.202 29.14 115.567 29.14ZM121.54 29C121.446 29 121.367 28.9673 121.302 28.902C121.236 28.8367 121.204 28.7573 121.204 28.664V19.396C121.204 19.3027 121.236 19.2233 121.302 19.158C121.367 19.0927 121.446 19.06 121.54 19.06H122.786C122.888 19.06 122.968 19.0927 123.024 19.158C123.089 19.2233 123.122 19.3027 123.122 19.396V22.588C123.374 22.2893 123.682 22.0467 124.046 21.86C124.41 21.6733 124.858 21.58 125.39 21.58C125.959 21.58 126.454 21.7107 126.874 21.972C127.303 22.224 127.634 22.5833 127.868 23.05C128.101 23.5167 128.218 24.0767 128.218 24.73V28.664C128.218 28.7573 128.185 28.8367 128.12 28.902C128.054 28.9673 127.975 29 127.882 29H126.622C126.528 29 126.449 28.9673 126.384 28.902C126.318 28.8367 126.286 28.7573 126.286 28.664V24.814C126.286 24.2727 126.15 23.848 125.88 23.54C125.618 23.232 125.236 23.078 124.732 23.078C124.246 23.078 123.854 23.232 123.556 23.54C123.266 23.848 123.122 24.2727 123.122 24.814V28.664C123.122 28.7573 123.089 28.8367 123.024 28.902C122.968 28.9673 122.888 29 122.786 29H121.54ZM133.214 29.14C132.468 29.14 131.838 29.0093 131.324 28.748C130.82 28.4867 130.433 28.118 130.162 27.642C129.901 27.166 129.752 26.6107 129.714 25.976C129.705 25.808 129.7 25.6027 129.7 25.36C129.7 25.1173 129.705 24.912 129.714 24.744C129.752 24.1 129.906 23.5447 130.176 23.078C130.456 22.602 130.848 22.2333 131.352 21.972C131.866 21.7107 132.486 21.58 133.214 21.58C133.942 21.58 134.558 21.7107 135.062 21.972C135.576 22.2333 135.968 22.602 136.238 23.078C136.518 23.5447 136.677 24.1 136.714 24.744C136.724 24.912 136.728 25.1173 136.728 25.36C136.728 25.6027 136.724 25.808 136.714 25.976C136.677 26.6107 136.523 27.166 136.252 27.642C135.991 28.118 135.604 28.4867 135.09 28.748C134.586 29.0093 133.961 29.14 133.214 29.14ZM133.214 27.754C133.709 27.754 134.092 27.6 134.362 27.292C134.633 26.9747 134.782 26.5127 134.81 25.906C134.82 25.766 134.824 25.584 134.824 25.36C134.824 25.136 134.82 24.954 134.81 24.814C134.782 24.2167 134.633 23.7593 134.362 23.442C134.092 23.1247 133.709 22.966 133.214 22.966C132.72 22.966 132.337 23.1247 132.066 23.442C131.796 23.7593 131.646 24.2167 131.618 24.814C131.609 24.954 131.604 25.136 131.604 25.36C131.604 25.584 131.609 25.766 131.618 25.906C131.646 26.5127 131.796 26.9747 132.066 27.292C132.337 27.6 132.72 27.754 133.214 27.754ZM138.615 29C138.522 29 138.443 28.9673 138.377 28.902C138.312 28.8367 138.279 28.7573 138.279 28.664V22.056C138.279 21.9627 138.312 21.8833 138.377 21.818C138.443 21.7527 138.522 21.72 138.615 21.72H139.777C139.88 21.72 139.959 21.7527 140.015 21.818C140.081 21.8833 140.113 21.9627 140.113 22.056V28.664C140.113 28.7573 140.081 28.8367 140.015 28.902C139.959 28.9673 139.88 29 139.777 29H138.615ZM138.559 20.516C138.457 20.516 138.373 20.488 138.307 20.432C138.251 20.3667 138.223 20.2827 138.223 20.18V19.172C138.223 19.0787 138.251 18.9993 138.307 18.934C138.373 18.8687 138.457 18.836 138.559 18.836H139.833C139.936 18.836 140.02 18.8687 140.085 18.934C140.151 18.9993 140.183 19.0787 140.183 19.172V20.18C140.183 20.2827 140.151 20.3667 140.085 20.432C140.02 20.488 139.936 20.516 139.833 20.516H138.559ZM145.162 29.14C144.49 29.14 143.897 29.014 143.384 28.762C142.88 28.51 142.483 28.146 142.194 27.67C141.914 27.1847 141.76 26.6013 141.732 25.92C141.723 25.78 141.718 25.598 141.718 25.374C141.718 25.1407 141.723 24.9493 141.732 24.8C141.76 24.1187 141.914 23.54 142.194 23.064C142.483 22.5787 142.88 22.21 143.384 21.958C143.897 21.706 144.49 21.58 145.162 21.58C145.759 21.58 146.268 21.664 146.688 21.832C147.108 22 147.453 22.21 147.724 22.462C147.995 22.714 148.195 22.98 148.326 23.26C148.466 23.5307 148.541 23.778 148.55 24.002C148.559 24.1047 148.527 24.1887 148.452 24.254C148.387 24.31 148.307 24.338 148.214 24.338H146.982C146.889 24.338 146.814 24.3147 146.758 24.268C146.711 24.2213 146.665 24.1513 146.618 24.058C146.478 23.6847 146.291 23.4233 146.058 23.274C145.834 23.1153 145.545 23.036 145.19 23.036C144.723 23.036 144.35 23.1853 144.07 23.484C143.799 23.7733 143.655 24.2353 143.636 24.87C143.617 25.2247 143.617 25.5513 143.636 25.85C143.655 26.494 143.799 26.9607 144.07 27.25C144.35 27.5393 144.723 27.684 145.19 27.684C145.554 27.684 145.848 27.6093 146.072 27.46C146.296 27.3013 146.478 27.0353 146.618 26.662C146.665 26.5687 146.711 26.4987 146.758 26.452C146.814 26.4053 146.889 26.382 146.982 26.382H148.214C148.307 26.382 148.387 26.4147 148.452 26.48C148.527 26.536 148.559 26.6153 148.55 26.718C148.541 26.886 148.494 27.0773 148.41 27.292C148.335 27.4973 148.209 27.712 148.032 27.936C147.864 28.1507 147.649 28.3513 147.388 28.538C147.127 28.7153 146.809 28.86 146.436 28.972C146.072 29.084 145.647 29.14 145.162 29.14ZM153.146 29.14C152.11 29.14 151.289 28.8413 150.682 28.244C150.075 27.6467 149.749 26.7973 149.702 25.696C149.693 25.6027 149.688 25.486 149.688 25.346C149.688 25.1967 149.693 25.08 149.702 24.996C149.739 24.296 149.898 23.6893 150.178 23.176C150.467 22.6627 150.864 22.2707 151.368 22C151.872 21.72 152.465 21.58 153.146 21.58C153.902 21.58 154.537 21.7387 155.05 22.056C155.563 22.364 155.951 22.798 156.212 23.358C156.473 23.9087 156.604 24.548 156.604 25.276V25.57C156.604 25.6633 156.571 25.7427 156.506 25.808C156.441 25.8733 156.357 25.906 156.254 25.906H151.606C151.606 25.906 151.606 25.92 151.606 25.948C151.606 25.976 151.606 25.9993 151.606 26.018C151.615 26.3447 151.676 26.648 151.788 26.928C151.909 27.1987 152.082 27.418 152.306 27.586C152.539 27.754 152.815 27.838 153.132 27.838C153.393 27.838 153.613 27.8007 153.79 27.726C153.967 27.642 154.112 27.5487 154.224 27.446C154.336 27.3433 154.415 27.2593 154.462 27.194C154.546 27.082 154.611 27.0167 154.658 26.998C154.714 26.97 154.793 26.956 154.896 26.956H156.1C156.193 26.956 156.268 26.984 156.324 27.04C156.389 27.096 156.417 27.166 156.408 27.25C156.399 27.3993 156.319 27.5813 156.17 27.796C156.03 28.0107 155.825 28.2207 155.554 28.426C155.283 28.6313 154.943 28.804 154.532 28.944C154.131 29.0747 153.669 29.14 153.146 29.14ZM151.606 24.73H154.7V24.688C154.7 24.324 154.639 24.0067 154.518 23.736C154.397 23.4653 154.219 23.2507 153.986 23.092C153.753 22.9333 153.473 22.854 153.146 22.854C152.819 22.854 152.539 22.9333 152.306 23.092C152.073 23.2507 151.895 23.4653 151.774 23.736C151.662 24.0067 151.606 24.324 151.606 24.688V24.73ZM160.848 29.14C160.288 29.14 159.807 29.0747 159.406 28.944C159.014 28.8133 158.692 28.65 158.44 28.454C158.188 28.258 158.001 28.062 157.88 27.866C157.759 27.67 157.693 27.5067 157.684 27.376C157.675 27.2733 157.703 27.194 157.768 27.138C157.843 27.0727 157.922 27.04 158.006 27.04H159.112C159.149 27.04 159.182 27.0447 159.21 27.054C159.238 27.0633 159.275 27.0913 159.322 27.138C159.443 27.2407 159.569 27.348 159.7 27.46C159.84 27.572 160.003 27.67 160.19 27.754C160.377 27.8287 160.61 27.866 160.89 27.866C161.254 27.866 161.557 27.796 161.8 27.656C162.052 27.5067 162.178 27.2967 162.178 27.026C162.178 26.83 162.122 26.6713 162.01 26.55C161.907 26.4287 161.711 26.3213 161.422 26.228C161.133 26.1253 160.722 26.018 160.19 25.906C159.667 25.7847 159.233 25.6307 158.888 25.444C158.543 25.2573 158.286 25.024 158.118 24.744C157.95 24.464 157.866 24.1373 157.866 23.764C157.866 23.4 157.973 23.0547 158.188 22.728C158.412 22.392 158.739 22.1167 159.168 21.902C159.607 21.6873 160.148 21.58 160.792 21.58C161.296 21.58 161.735 21.6453 162.108 21.776C162.481 21.8973 162.789 22.0513 163.032 22.238C163.284 22.4247 163.475 22.616 163.606 22.812C163.737 22.9987 163.807 23.162 163.816 23.302C163.825 23.4047 163.797 23.4887 163.732 23.554C163.667 23.61 163.592 23.638 163.508 23.638H162.472C162.425 23.638 162.383 23.6287 162.346 23.61C162.309 23.5913 162.271 23.568 162.234 23.54C162.131 23.4467 162.019 23.3487 161.898 23.246C161.777 23.1433 161.627 23.0547 161.45 22.98C161.282 22.896 161.058 22.854 160.778 22.854C160.423 22.854 160.153 22.9333 159.966 23.092C159.779 23.2413 159.686 23.4327 159.686 23.666C159.686 23.8247 159.728 23.9647 159.812 24.086C159.905 24.198 160.087 24.3053 160.358 24.408C160.629 24.5107 161.039 24.618 161.59 24.73C162.215 24.842 162.71 25.01 163.074 25.234C163.447 25.4487 163.709 25.7007 163.858 25.99C164.017 26.27 164.096 26.5827 164.096 26.928C164.096 27.348 163.97 27.726 163.718 28.062C163.475 28.398 163.111 28.664 162.626 28.86C162.15 29.0467 161.557 29.14 160.848 29.14Z" fill="#6A5AE0"/>
</svg>
